<svg xmlns="http://www.w3.org/2000/svg" viewBox="0 0 64 64"><defs><style>.a{fill:#6dedbe;}.b{fill:#fff;}</style></defs><title>fast</title><path class="a" d="M59.53,23.8C54,7,35.81-2.78,19,4.2-.54,14-1.94,40.55,13.44,54.53A29.76,29.76,0,0,0,47,58.72c8.39-5.59,12.58-14,13.94-23.29A31.36,31.36,0,0,0,59.53,23.8Z"/><polygon class="b" points="28.2 33.4 21 33.4 21 9 42.38 9 32.78 28.2 42.26 28.2 28.2 52.3 28.2 33.4"/><path d="M40.76,10,32.61,26.31,31.16,29.2h9.36L29.2,48.6V32.4H22V10H40.76M44,8H20V34.4h7.2V56L44,27.2H34.4L44,8Z"/></svg>